@startuml
class com.project.payload.response.ResponseMessage {
- E object
- String message
- HttpStatus status
}
class com.project.security.service.UserDetailsServiceImpl {
- UserRepository userRepository
+ UserDetails loadUserByUsername(String)
}
class com.project.security.config.WebSecurityConfig {
}
class com.project.contactMessage.dto.ContactMessageResponse {
- String name
- String email
- String subject
- String message
- LocalDateTime dateTime
}
enum com.project.entity.enums.RoleType {
+  ADMIN
+  TEACHER
+  STUDENT
+  MANAGER
+  ASSISTANT_MANAGER
+ String name
+ String getName()
}
class com.project.contactMessage.mapper.ContactMessageMapper {
+ ContactMessage requestToContactMessage(ContactMessageRequest)
+ ContactMessageResponse contactMessageToResponse(ContactMessage)
}
class com.project.contactMessage.entity.ContactMessage {
- Long id
- String name
- String email
- String subject
- String message
- LocalDateTime dateTime
}
enum com.project.entity.enums.Term {
+  FALL_SEMESTER
+  SPRING_SEMESTER
}
class com.project.entity.concretes.business.StudentInfo {
- Long id
- Integer absentee
- Double midtermExam
- Double finalExam
- Double examAverage
- String infoNote
- Note letterGrade
- User teacher
- User student
- Lesson lesson
- EducationTerm educationTerm
}
class com.project.entity.concretes.business.EducationTerm {
- Long id
- Term term
- LocalDate startDate
- LocalDate endDate
- LocalDate lastRegistrationDate
- List<LessonProgram> lessonProgram
}
class com.project.contactMessage.dto.ContactMessageRequest {
- String name
- String email
- String subject
- String message
}
class com.project.entity.concretes.user.UserRole {
- Integer id
- RoleType roleType
- String roleName
}
class com.project.security.service.UserDetailsImpl {
- Long id
- String username
- String name
- Boolean isAdvisor
- String password
- String ssn
- Collection<? extends GrantedAuthority> authorities
+ Collection<? extends GrantedAuthority> getAuthorities()
+ String getPassword()
+ String getUsername()
+ boolean isAccountNonExpired()
+ boolean isAccountNonLocked()
+ boolean isCredentialsNonExpired()
+ boolean isEnabled()
+ boolean equals(Object)
}
enum com.project.entity.enums.Gender {
+  MALE
+  FEMALE
}
class com.project.contactMessage.messages.Messages {
+ {static} String NOT_FOUND_MESSAGE
+ {static} String CONTACT_MESSAGE_DELETED_SUCCESSFULLY
+ {static} String WRONG_TIME_FORMAT
+ {static} String WRONG_DATE_FORMAT
}
class com.project.security.jwt.AuthTokenFilter {
- {static} Logger LOGGER
- JwtUtils jwtUtils
- UserDetailsServiceImpl userDetailsService
# void doFilterInternal(HttpServletRequest,HttpServletResponse,FilterChain)
- String parseJwt(HttpServletRequest)
}
class com.project.entity.concretes.business.LessonProgram {
- Long id
- Day day
- LocalTime startTime
- LocalTime stopTime
- Set<Lesson> lessons
- EducationTerm educationTerm
- Set<User> users
- void removeLessonProgramFromUser()
}
interface com.project.contactMessage.repository.ContactMessageRepository {
~ Page<ContactMessage> findByEmailEquals(String,Pageable)
~ Page<ContactMessage> findBySubjectEquals(String,Pageable)
~ List<ContactMessage> findMessagesBetweenDates(LocalDate,LocalDate)
~ List<ContactMessage> findMessagesBetweenTimes(int,int,int,int)
}
enum com.project.entity.enums.Note {
+  AA
+  BA
+  BB
+  CB
+  CC
+  DC
+  DD
+  DZ
+  FF
}
class com.project.StudentManagementApplication {
+ {static} void main(String[])
}
class com.project.contactMessage.service.ContactMessageService {
- ContactMessageRepository contactMessageRepository
- ContactMessageMapper contactMessageMapper
+ ResponseMessage<ContactMessageResponse> save(ContactMessageRequest)
+ Page<ContactMessageResponse> getAll(int,int,String,String)
+ Page<ContactMessageResponse> searchByEmail(String,int,int,String,String)
+ Page<ContactMessageResponse> searchBySubject(String,int,int,String,String)
+ String deleteById(Long)
+ ContactMessage getContactMessageById(Long)
+ List<ContactMessage> searchByDateBetween(String,String)
+ List<ContactMessage> searchBetweenTimes(String,String,String,String)
}
class com.project.exception.ConflictException {
}
class com.project.contactMessage.controller.ContactMessageController {
- ContactMessageService contactMessageService
+ ResponseMessage<ContactMessageResponse> save(ContactMessageRequest)
+ Page<ContactMessageResponse> getAll(int,int,String,String)
+ Page<ContactMessageResponse> searchByEmail(String,int,int,String,String)
+ Page<ContactMessageResponse> searchBySubject(String,int,int,String,String)
+ ResponseEntity<String> deleteByIdPath(Long)
+ ResponseEntity<String> deleteByIdParam(Long)
+ ResponseEntity<ContactMessage> getByIdWithPath(Long)
+ ResponseEntity<List<ContactMessage>> searchBetweenDates(String,String)
+ ResponseEntity<List<ContactMessage>> searchBetweenTimes(String,String,String,String)
}
class com.project.entity.concretes.user.User {
- Long id
- String username
- String ssn
- String name
- String surname
- LocalDate birthDay
- String birthPlace
- String password
- String phoneNumber
- String email
- Boolean built_in
- String motherName
- String fatherName
- int studentNumber
- boolean isActive
- Boolean isAdvisor
- Long advisorTeacherId
- Gender gender
- UserRole userRole
- List<StudentInfo> studentInfos
- Set<LessonProgram> lessonProgramList
- List<Meet> meetList
}
class com.project.security.jwt.JwtUtils {
- {static} Logger LOGGER
- String jwtSecret
- long jwtExpirationMs
+ String generateJwtToken(Authentication)
+ String generateJwtTokenFromUsername(String)
+ boolean validateJwtToken(String)
+ String getUserNameFromJwtToken(String)
}
class com.project.entity.concretes.business.Meet {
- Long id
- String description
- LocalDate date
- LocalTime startTime
- LocalTime stopTime
- User advisoryTeacher
- List<User> studentList
}
interface com.project.repository.UserRepository {
~ User findByUsernameEquals(String)
}
class com.project.StudentManagementApplicationTests {
~ void contextLoads()
}
class com.project.entity.concretes.business.Lesson {
- Long lessonId
- String lessonName
- Integer creditScore
- Boolean isCompulsory
- Set<LessonProgram> lessonPrograms
}
class com.project.exception.ResourceNotFoundException {
}
enum com.project.entity.enums.Day {
+  MONDAY
+  TUESDAY
+  WEDNESDAY
+  THURSDAY
+  FRIDAY
+  SATURDAY
+  SUNDAY
}


org.springframework.security.core.userdetails.UserDetailsService <|.. com.project.security.service.UserDetailsServiceImpl
java.io.Serializable <|.. com.project.contactMessage.entity.ContactMessage
org.springframework.security.core.userdetails.UserDetails <|.. com.project.security.service.UserDetailsImpl
org.springframework.web.filter.OncePerRequestFilter <|-- com.project.security.jwt.AuthTokenFilter
org.springframework.data.jpa.repository.JpaRepository <|-- com.project.contactMessage.repository.ContactMessageRepository
com.project.exception.RuntimeException <|-- com.project.exception.ConflictException
org.springframework.data.jpa.repository.JpaRepository <|-- com.project.repository.UserRepository
com.project.exception.RuntimeException <|-- com.project.exception.ResourceNotFoundException
@enduml